<mxfile host="app.diagrams.net" modified="2021-03-26T14:43:35.947Z" agent="5.0 (Windows NT 10.0; Win64; x64) AppleWebKit/537.36 (KHTML, like Gecko) Chrome/89.0.4389.90 Safari/537.36" etag="1CHKoW7GWcCfeMBb8JyC" version="14.5.1" type="github">
  <diagram id="XapmqZ_uBSiiMEZh1IS5" name="Page-1">
    <mxGraphModel dx="3220" dy="1270" grid="1" gridSize="10" guides="1" tooltips="1" connect="1" arrows="1" fold="1" page="1" pageScale="1" pageWidth="850" pageHeight="1100" math="0" shadow="0">
      <root>
        <mxCell id="0" />
        <mxCell id="1" parent="0" />
        <mxCell id="sV1EDJKBf6-28QsL_SZp-5" style="edgeStyle=orthogonalEdgeStyle;rounded=0;orthogonalLoop=1;jettySize=auto;html=1;exitX=0.5;exitY=1;exitDx=0;exitDy=0;entryX=0.5;entryY=0;entryDx=0;entryDy=0;" parent="1" source="sV1EDJKBf6-28QsL_SZp-1" target="sV1EDJKBf6-28QsL_SZp-2" edge="1">
          <mxGeometry relative="1" as="geometry" />
        </mxCell>
        <mxCell id="sV1EDJKBf6-28QsL_SZp-6" style="edgeStyle=orthogonalEdgeStyle;rounded=0;orthogonalLoop=1;jettySize=auto;html=1;exitX=0.5;exitY=1;exitDx=0;exitDy=0;entryX=0.5;entryY=0;entryDx=0;entryDy=0;" parent="1" source="sV1EDJKBf6-28QsL_SZp-1" target="sV1EDJKBf6-28QsL_SZp-3" edge="1">
          <mxGeometry relative="1" as="geometry" />
        </mxCell>
        <mxCell id="sV1EDJKBf6-28QsL_SZp-7" style="edgeStyle=orthogonalEdgeStyle;rounded=0;orthogonalLoop=1;jettySize=auto;html=1;exitX=0.5;exitY=1;exitDx=0;exitDy=0;entryX=0.5;entryY=0;entryDx=0;entryDy=0;" parent="1" source="sV1EDJKBf6-28QsL_SZp-1" target="sV1EDJKBf6-28QsL_SZp-4" edge="1">
          <mxGeometry relative="1" as="geometry" />
        </mxCell>
        <mxCell id="fQThnaqCgEW7VH5o-ytB-2" style="edgeStyle=orthogonalEdgeStyle;rounded=0;orthogonalLoop=1;jettySize=auto;html=1;exitX=0.5;exitY=1;exitDx=0;exitDy=0;entryX=0.5;entryY=0;entryDx=0;entryDy=0;" edge="1" parent="1" source="sV1EDJKBf6-28QsL_SZp-1" target="fQThnaqCgEW7VH5o-ytB-1">
          <mxGeometry relative="1" as="geometry" />
        </mxCell>
        <mxCell id="sV1EDJKBf6-28QsL_SZp-1" value="The Federation Government&lt;br&gt;TTC: 7 Days&lt;br&gt;Reward: The Federation Government event, short lore, grant 50 political power" style="rounded=0;whiteSpace=wrap;html=1;" parent="1" vertex="1">
          <mxGeometry x="440" y="30" width="160" height="80" as="geometry" />
        </mxCell>
        <mxCell id="fQThnaqCgEW7VH5o-ytB-18" style="edgeStyle=orthogonalEdgeStyle;rounded=0;orthogonalLoop=1;jettySize=auto;html=1;exitX=0.5;exitY=1;exitDx=0;exitDy=0;entryX=0.5;entryY=0;entryDx=0;entryDy=0;" edge="1" parent="1" source="sV1EDJKBf6-28QsL_SZp-2" target="fQThnaqCgEW7VH5o-ytB-16">
          <mxGeometry relative="1" as="geometry" />
        </mxCell>
        <mxCell id="fQThnaqCgEW7VH5o-ytB-19" style="edgeStyle=orthogonalEdgeStyle;rounded=0;orthogonalLoop=1;jettySize=auto;html=1;exitX=0.5;exitY=1;exitDx=0;exitDy=0;entryX=0.5;entryY=0;entryDx=0;entryDy=0;" edge="1" parent="1" source="sV1EDJKBf6-28QsL_SZp-2" target="fQThnaqCgEW7VH5o-ytB-15">
          <mxGeometry relative="1" as="geometry" />
        </mxCell>
        <mxCell id="sV1EDJKBf6-28QsL_SZp-2" value="The Discrimination Issue&lt;br&gt;TTC: 14 Days&lt;br&gt;Reward: Discrimination Issue event, describes racism in LA. 2 choices, leads to potential different leaders" style="rounded=0;whiteSpace=wrap;html=1;" parent="1" vertex="1">
          <mxGeometry x="680" y="160" width="180" height="100" as="geometry" />
        </mxCell>
        <mxCell id="fQThnaqCgEW7VH5o-ytB-24" style="edgeStyle=orthogonalEdgeStyle;rounded=0;orthogonalLoop=1;jettySize=auto;html=1;exitX=0.5;exitY=1;exitDx=0;exitDy=0;entryX=0.5;entryY=0;entryDx=0;entryDy=0;" edge="1" parent="1" source="sV1EDJKBf6-28QsL_SZp-3" target="fQThnaqCgEW7VH5o-ytB-21">
          <mxGeometry relative="1" as="geometry" />
        </mxCell>
        <mxCell id="fQThnaqCgEW7VH5o-ytB-25" style="edgeStyle=orthogonalEdgeStyle;rounded=0;orthogonalLoop=1;jettySize=auto;html=1;exitX=0.5;exitY=1;exitDx=0;exitDy=0;entryX=0.5;entryY=0;entryDx=0;entryDy=0;" edge="1" parent="1" source="sV1EDJKBf6-28QsL_SZp-3" target="fQThnaqCgEW7VH5o-ytB-22">
          <mxGeometry relative="1" as="geometry" />
        </mxCell>
        <mxCell id="fQThnaqCgEW7VH5o-ytB-26" style="edgeStyle=orthogonalEdgeStyle;rounded=0;orthogonalLoop=1;jettySize=auto;html=1;exitX=0.5;exitY=1;exitDx=0;exitDy=0;entryX=0.5;entryY=0;entryDx=0;entryDy=0;" edge="1" parent="1" source="sV1EDJKBf6-28QsL_SZp-3" target="fQThnaqCgEW7VH5o-ytB-23">
          <mxGeometry relative="1" as="geometry" />
        </mxCell>
        <mxCell id="sV1EDJKBf6-28QsL_SZp-3" value="The Pollution Issue&lt;br&gt;TTC: 14 Days&lt;br&gt;Reward: Pollution Issue event, describes the climate and pollution in LA. 3 choices, leads to potential different leaders" style="rounded=0;whiteSpace=wrap;html=1;" parent="1" vertex="1">
          <mxGeometry x="1240" y="160" width="180" height="100" as="geometry" />
        </mxCell>
        <mxCell id="fQThnaqCgEW7VH5o-ytB-12" value="" style="edgeStyle=orthogonalEdgeStyle;rounded=0;orthogonalLoop=1;jettySize=auto;html=1;" edge="1" parent="1" source="sV1EDJKBf6-28QsL_SZp-4" target="fQThnaqCgEW7VH5o-ytB-9">
          <mxGeometry relative="1" as="geometry" />
        </mxCell>
        <mxCell id="fQThnaqCgEW7VH5o-ytB-13" style="edgeStyle=orthogonalEdgeStyle;rounded=0;orthogonalLoop=1;jettySize=auto;html=1;exitX=0.5;exitY=1;exitDx=0;exitDy=0;entryX=0.5;entryY=0;entryDx=0;entryDy=0;" edge="1" parent="1" source="sV1EDJKBf6-28QsL_SZp-4" target="fQThnaqCgEW7VH5o-ytB-10">
          <mxGeometry relative="1" as="geometry" />
        </mxCell>
        <mxCell id="fQThnaqCgEW7VH5o-ytB-14" style="edgeStyle=orthogonalEdgeStyle;rounded=0;orthogonalLoop=1;jettySize=auto;html=1;exitX=0.5;exitY=1;exitDx=0;exitDy=0;entryX=0.5;entryY=0;entryDx=0;entryDy=0;" edge="1" parent="1" source="sV1EDJKBf6-28QsL_SZp-4" target="fQThnaqCgEW7VH5o-ytB-11">
          <mxGeometry relative="1" as="geometry" />
        </mxCell>
        <mxCell id="sV1EDJKBf6-28QsL_SZp-4" value="The Homeless Issue&lt;br&gt;TTC: 14 Days&lt;br&gt;Reward: Homeless Issue Event, describes homelessness in LA. 3 choices, leads to potential different leaders" style="rounded=0;whiteSpace=wrap;html=1;" parent="1" vertex="1">
          <mxGeometry x="100" y="160" width="180" height="100" as="geometry" />
        </mxCell>
        <mxCell id="fQThnaqCgEW7VH5o-ytB-6" style="edgeStyle=orthogonalEdgeStyle;rounded=0;orthogonalLoop=1;jettySize=auto;html=1;exitX=0.5;exitY=1;exitDx=0;exitDy=0;entryX=0.5;entryY=0;entryDx=0;entryDy=0;" edge="1" parent="1" source="fQThnaqCgEW7VH5o-ytB-1" target="fQThnaqCgEW7VH5o-ytB-4">
          <mxGeometry relative="1" as="geometry" />
        </mxCell>
        <mxCell id="fQThnaqCgEW7VH5o-ytB-7" style="edgeStyle=orthogonalEdgeStyle;rounded=0;orthogonalLoop=1;jettySize=auto;html=1;exitX=0.5;exitY=1;exitDx=0;exitDy=0;entryX=0.5;entryY=0;entryDx=0;entryDy=0;" edge="1" parent="1" source="fQThnaqCgEW7VH5o-ytB-1" target="fQThnaqCgEW7VH5o-ytB-3">
          <mxGeometry relative="1" as="geometry" />
        </mxCell>
        <mxCell id="fQThnaqCgEW7VH5o-ytB-8" style="edgeStyle=orthogonalEdgeStyle;rounded=0;orthogonalLoop=1;jettySize=auto;html=1;exitX=0.5;exitY=1;exitDx=0;exitDy=0;entryX=0.5;entryY=0;entryDx=0;entryDy=0;" edge="1" parent="1" source="fQThnaqCgEW7VH5o-ytB-1" target="fQThnaqCgEW7VH5o-ytB-5">
          <mxGeometry relative="1" as="geometry" />
        </mxCell>
        <mxCell id="fQThnaqCgEW7VH5o-ytB-1" value="The Crime Issue&lt;br&gt;TTC: 14 Days&lt;br&gt;Reward: Crime Issue Event, describes the crimes and gang issues. 3 choices, leads to potential different leaders" style="rounded=0;whiteSpace=wrap;html=1;" vertex="1" parent="1">
          <mxGeometry x="-580" y="160" width="180" height="100" as="geometry" />
        </mxCell>
        <mxCell id="fQThnaqCgEW7VH5o-ytB-45" style="edgeStyle=orthogonalEdgeStyle;rounded=0;orthogonalLoop=1;jettySize=auto;html=1;exitX=1;exitY=0.5;exitDx=0;exitDy=0;entryX=0;entryY=0.5;entryDx=0;entryDy=0;" edge="1" parent="1" source="fQThnaqCgEW7VH5o-ytB-3" target="fQThnaqCgEW7VH5o-ytB-4">
          <mxGeometry relative="1" as="geometry" />
        </mxCell>
        <mxCell id="fQThnaqCgEW7VH5o-ytB-3" value="Crush The Gangs! Send Them To Prison!&lt;br&gt;TTC: 0 Days (Auto-Complete via Event)" style="rounded=0;whiteSpace=wrap;html=1;fillColor=#dae8fc;strokeColor=#6c8ebf;" vertex="1" parent="1">
          <mxGeometry x="-800" y="300" width="180" height="100" as="geometry" />
        </mxCell>
        <mxCell id="fQThnaqCgEW7VH5o-ytB-43" style="edgeStyle=orthogonalEdgeStyle;rounded=0;orthogonalLoop=1;jettySize=auto;html=1;" edge="1" parent="1" source="fQThnaqCgEW7VH5o-ytB-4">
          <mxGeometry relative="1" as="geometry">
            <mxPoint x="-340" y="350.0000000000001" as="targetPoint" />
          </mxGeometry>
        </mxCell>
        <mxCell id="fQThnaqCgEW7VH5o-ytB-44" style="edgeStyle=orthogonalEdgeStyle;rounded=0;orthogonalLoop=1;jettySize=auto;html=1;entryX=1;entryY=0.5;entryDx=0;entryDy=0;" edge="1" parent="1" source="fQThnaqCgEW7VH5o-ytB-4" target="fQThnaqCgEW7VH5o-ytB-3">
          <mxGeometry relative="1" as="geometry" />
        </mxCell>
        <mxCell id="fQThnaqCgEW7VH5o-ytB-4" value="Rehabilitate The Criminals In Jail&lt;br&gt;TTC: 0 Days (Auto-Complete via Event)" style="rounded=0;whiteSpace=wrap;html=1;fillColor=#fff2cc;strokeColor=#d6b656;" vertex="1" parent="1">
          <mxGeometry x="-580" y="300" width="180" height="100" as="geometry" />
        </mxCell>
        <mxCell id="fQThnaqCgEW7VH5o-ytB-42" style="edgeStyle=orthogonalEdgeStyle;rounded=0;orthogonalLoop=1;jettySize=auto;html=1;entryX=1;entryY=0.5;entryDx=0;entryDy=0;" edge="1" parent="1" source="fQThnaqCgEW7VH5o-ytB-5" target="fQThnaqCgEW7VH5o-ytB-4">
          <mxGeometry relative="1" as="geometry" />
        </mxCell>
        <mxCell id="fQThnaqCgEW7VH5o-ytB-5" value="The Root Cause Of Crime&lt;br&gt;TTC: 0 Days (Auto-Complete via Event)" style="rounded=0;whiteSpace=wrap;html=1;fillColor=#f8cecc;strokeColor=#b85450;" vertex="1" parent="1">
          <mxGeometry x="-340" y="300" width="180" height="100" as="geometry" />
        </mxCell>
        <mxCell id="fQThnaqCgEW7VH5o-ytB-38" style="edgeStyle=orthogonalEdgeStyle;rounded=0;orthogonalLoop=1;jettySize=auto;html=1;entryX=0;entryY=0.5;entryDx=0;entryDy=0;" edge="1" parent="1" source="fQThnaqCgEW7VH5o-ytB-9" target="fQThnaqCgEW7VH5o-ytB-11">
          <mxGeometry relative="1" as="geometry" />
        </mxCell>
        <mxCell id="fQThnaqCgEW7VH5o-ytB-40" style="edgeStyle=orthogonalEdgeStyle;rounded=0;orthogonalLoop=1;jettySize=auto;html=1;" edge="1" parent="1" source="fQThnaqCgEW7VH5o-ytB-9" target="fQThnaqCgEW7VH5o-ytB-10">
          <mxGeometry relative="1" as="geometry" />
        </mxCell>
        <mxCell id="fQThnaqCgEW7VH5o-ytB-9" value="Homeless Shelters&lt;br&gt;TTC: 0 Days (Auto-Complete via Event)" style="rounded=0;whiteSpace=wrap;html=1;fillColor=#fff2cc;strokeColor=#d6b656;" vertex="1" parent="1">
          <mxGeometry x="100" y="300" width="180" height="100" as="geometry" />
        </mxCell>
        <mxCell id="fQThnaqCgEW7VH5o-ytB-41" style="edgeStyle=orthogonalEdgeStyle;rounded=0;orthogonalLoop=1;jettySize=auto;html=1;entryX=0;entryY=0.5;entryDx=0;entryDy=0;" edge="1" parent="1" source="fQThnaqCgEW7VH5o-ytB-10" target="fQThnaqCgEW7VH5o-ytB-9">
          <mxGeometry relative="1" as="geometry" />
        </mxCell>
        <mxCell id="fQThnaqCgEW7VH5o-ytB-10" value="Lock Them Up!&lt;br&gt;TTC: 0 Days (Auto-Complete via Event)" style="rounded=0;whiteSpace=wrap;html=1;fillColor=#dae8fc;strokeColor=#6c8ebf;" vertex="1" parent="1">
          <mxGeometry x="-120" y="300" width="180" height="100" as="geometry" />
        </mxCell>
        <mxCell id="fQThnaqCgEW7VH5o-ytB-39" style="edgeStyle=orthogonalEdgeStyle;rounded=0;orthogonalLoop=1;jettySize=auto;html=1;entryX=1;entryY=0.5;entryDx=0;entryDy=0;" edge="1" parent="1" source="fQThnaqCgEW7VH5o-ytB-11" target="fQThnaqCgEW7VH5o-ytB-9">
          <mxGeometry relative="1" as="geometry" />
        </mxCell>
        <mxCell id="fQThnaqCgEW7VH5o-ytB-11" value="The Root Cause of Homelessness&lt;br&gt;TTC: 0 Days (Auto-Complete via Event)" style="rounded=0;whiteSpace=wrap;html=1;fillColor=#f8cecc;strokeColor=#b85450;" vertex="1" parent="1">
          <mxGeometry x="320" y="300" width="180" height="100" as="geometry" />
        </mxCell>
        <mxCell id="fQThnaqCgEW7VH5o-ytB-36" style="edgeStyle=orthogonalEdgeStyle;rounded=0;orthogonalLoop=1;jettySize=auto;html=1;entryX=1;entryY=0.5;entryDx=0;entryDy=0;" edge="1" parent="1" source="fQThnaqCgEW7VH5o-ytB-15" target="fQThnaqCgEW7VH5o-ytB-16">
          <mxGeometry relative="1" as="geometry" />
        </mxCell>
        <mxCell id="fQThnaqCgEW7VH5o-ytB-15" value="Anti-Discrimination Education&lt;br&gt;TTC: 0 Days (Auto-Complete via Event)" style="rounded=0;whiteSpace=wrap;html=1;gradientColor=#FFF821;fillColor=#FFB570;" vertex="1" parent="1">
          <mxGeometry x="800" y="300" width="180" height="100" as="geometry" />
        </mxCell>
        <mxCell id="fQThnaqCgEW7VH5o-ytB-37" style="edgeStyle=orthogonalEdgeStyle;rounded=0;orthogonalLoop=1;jettySize=auto;html=1;entryX=0;entryY=0.5;entryDx=0;entryDy=0;" edge="1" parent="1" source="fQThnaqCgEW7VH5o-ytB-16" target="fQThnaqCgEW7VH5o-ytB-15">
          <mxGeometry relative="1" as="geometry" />
        </mxCell>
        <mxCell id="fQThnaqCgEW7VH5o-ytB-16" value="Minority-Only Neighborhoods&lt;br&gt;TTC: 0 Days (Auto-Complete via Event)" style="rounded=0;whiteSpace=wrap;html=1;fillColor=#dae8fc;strokeColor=#6c8ebf;" vertex="1" parent="1">
          <mxGeometry x="540" y="300" width="180" height="100" as="geometry" />
        </mxCell>
        <mxCell id="fQThnaqCgEW7VH5o-ytB-28" value="" style="edgeStyle=orthogonalEdgeStyle;rounded=0;orthogonalLoop=1;jettySize=auto;html=1;" edge="1" parent="1" source="fQThnaqCgEW7VH5o-ytB-21" target="fQThnaqCgEW7VH5o-ytB-22">
          <mxGeometry relative="1" as="geometry" />
        </mxCell>
        <mxCell id="fQThnaqCgEW7VH5o-ytB-21" value="There Is No Issue&lt;br&gt;TTC: 0 Days (Auto-Complete via Event)" style="rounded=0;whiteSpace=wrap;html=1;fillColor=#dae8fc;strokeColor=#6c8ebf;" vertex="1" parent="1">
          <mxGeometry x="1020" y="300" width="180" height="100" as="geometry" />
        </mxCell>
        <mxCell id="fQThnaqCgEW7VH5o-ytB-31" style="edgeStyle=orthogonalEdgeStyle;rounded=0;orthogonalLoop=1;jettySize=auto;html=1;entryX=1;entryY=0.5;entryDx=0;entryDy=0;" edge="1" parent="1" source="fQThnaqCgEW7VH5o-ytB-22" target="fQThnaqCgEW7VH5o-ytB-21">
          <mxGeometry relative="1" as="geometry" />
        </mxCell>
        <mxCell id="fQThnaqCgEW7VH5o-ytB-32" style="edgeStyle=orthogonalEdgeStyle;rounded=0;orthogonalLoop=1;jettySize=auto;html=1;entryX=0;entryY=0.5;entryDx=0;entryDy=0;" edge="1" parent="1" source="fQThnaqCgEW7VH5o-ytB-22" target="fQThnaqCgEW7VH5o-ytB-23">
          <mxGeometry relative="1" as="geometry" />
        </mxCell>
        <mxCell id="fQThnaqCgEW7VH5o-ytB-22" value="The Individual Must Change&lt;br&gt;TTC: 0 Days (Auto-Complete via Event)" style="rounded=0;whiteSpace=wrap;html=1;fillColor=#fff2cc;strokeColor=#d6b656;" vertex="1" parent="1">
          <mxGeometry x="1240" y="300" width="180" height="100" as="geometry" />
        </mxCell>
        <mxCell id="fQThnaqCgEW7VH5o-ytB-33" style="edgeStyle=orthogonalEdgeStyle;rounded=0;orthogonalLoop=1;jettySize=auto;html=1;entryX=1;entryY=0.5;entryDx=0;entryDy=0;" edge="1" parent="1" source="fQThnaqCgEW7VH5o-ytB-23" target="fQThnaqCgEW7VH5o-ytB-22">
          <mxGeometry relative="1" as="geometry" />
        </mxCell>
        <mxCell id="fQThnaqCgEW7VH5o-ytB-23" value="The Corporations Must Change&lt;br&gt;TTC: 0 Days (Auto-Complete via Event)" style="rounded=0;whiteSpace=wrap;html=1;fillColor=#f8cecc;strokeColor=#b85450;" vertex="1" parent="1">
          <mxGeometry x="1460" y="300" width="180" height="100" as="geometry" />
        </mxCell>
      </root>
    </mxGraphModel>
  </diagram>
</mxfile>
